<svg width="1001" height="1000" viewBox="0 0 1001 1000" fill="none" xmlns="http://www.w3.org/2000/svg">
<path d="M804.659 541.236H781.332V755.859H804.659V541.236Z" fill="#7C5D2D"/>
<path d="M218.632 541.236H195.305V755.859H218.632V541.236Z" fill="#7C5D2D"/>
<path d="M532.299 488.248L781.331 280.733V458.131H804.658V246.605H785.905L511.646 475.16V146.577H488.319V475.16L214.411 246.921L214.06 246.605H195.306V458.131H218.633V280.733L467.631 488.248L97.9523 487.932V511.329L467.807 511.646L338.083 619.766L337.063 620.611L351.981 638.555L488.319 524.91V853.564H511.646V524.91L646.929 637.675L647.949 638.519L662.867 620.576L532.123 511.611H976.532C973.542 636.057 922.771 752.692 833.474 840.229C743.72 928.19 625.29 976.638 499.965 976.638C237.105 976.638 23.2566 762.789 23.2566 499.965C23.2566 237.14 237.105 23.2918 499.965 23.2918C638.132 23.2918 769.369 83.175 860.038 187.601L865.456 193.829L883.084 178.559L877.665 172.331C782.563 62.8034 644.923 0 500 0C224.298 0 0 224.298 0 500C0 775.702 224.298 1000 500 1000C775.702 1000 1000 775.667 1000 499.965L1000.21 488.284H532.299V488.248Z" fill="#7C5D2D"/>
</svg>
